# xmcd
#
# Track frame offsets:
#	150
#	9886
#	22246
#	34522
#	46068
#	57554
#	70642
#	79949
#	88516
#	100568
#	112812
#	123262
#	135562
#	149278
#	160857
#	166435
#	177428
#	191374
#	203561
#	215719
#
# Disc length: 3048 seconds
#
# Revision: 0
# Processed by: cddbd v1.5.2PL0 Copyright (c) Steve Scherf et al.
# Submitted via: EasyCDDAExtractor 11.1.0.1
#
DISCID=040be614
DTITLE=Various Artist - Rock Island line
DYEAR=2008
DGENRE=country
TTITLE0=Johnny Cash - Rock island line
TTITLE1=Hank Williams - Cold cold heart
TTITLE2=Patsy Cline - A poor man's riches
TTITLE3=Eddy Arnold - Kentucky waltz
TTITLE4=Willie Nelson - December days
TTITLE5=Bob Wills and his Texas playboys - White cross on Okinawa
TTITLE6=Elvis Presley - I belive
TTITLE7=Jim Reeves - If you were mine
TTITLE8=Red Ingle and the Natural Seven - Cigarettes whiskey and wild wild woman
TTITLE9=Pee Wee King - Silver and gold
TTITLE10=Hank Snow - Ladies man
TTITLE11=The Delmore Brothers - Freight train boogie
TTITLE12=Uncle Dave Macon - Hold the woodpile down
TTITLE13=Bob Wills and his Texas playboysJohnny Cash - New spanish two step
TTITLE14=Johnny Cash - My treaasure
TTITLE15=Patsy Cline - Don't ever leave me again
TTITLE16=Ernest Tubb - Don't look now
TTITLE17=Lester Flatt and Earl Scruggs and the Foggy Mountain boys - We'll meet ag
TTITLE17=ain sweetheart
TTITLE18=The Osmonds - Where does an angel go
TTITLE19=Hank Williams and Chet Atkins and The Drifting Cowboys  -  jambalaya
EXTD=
EXTT0=
EXTT1=
EXTT2=
EXTT3=
EXTT4=
EXTT5=
EXTT6=
EXTT7=
EXTT8=
EXTT9=
EXTT10=
EXTT11=
EXTT12=
EXTT13=
EXTT14=
EXTT15=
EXTT16=
EXTT17=
EXTT18=
EXTT19=
PLAYORDER=
